<svg width="162" height="39" viewBox="0 0 162 39" fill="none" xmlns="http://www.w3.org/2000/svg">
<path d="M51.296 30V9.56H55.888V30H51.296ZM55.328 30V25.968H63.896V30H55.328ZM73.9419 30.532C72.5979 30.532 71.4032 30.3267 70.3579 29.916C69.3125 29.4867 68.4259 28.908 67.6979 28.18C66.9885 27.452 66.4472 26.6213 66.0739 25.688C65.7005 24.736 65.5139 23.7373 65.5139 22.692V22.048C65.5139 20.984 65.7005 19.976 66.0739 19.024C66.4659 18.0533 67.0259 17.204 67.7539 16.476C68.5005 15.748 69.3965 15.1787 70.4419 14.768C71.4872 14.3387 72.6539 14.124 73.9419 14.124C75.2672 14.124 76.4432 14.3387 77.4699 14.768C78.5152 15.1787 79.4019 15.748 80.1299 16.476C80.8579 17.204 81.4179 18.0533 81.8099 19.024C82.2019 19.976 82.3979 20.984 82.3979 22.048V22.692C82.3979 23.7373 82.2112 24.736 81.8379 25.688C81.4645 26.6213 80.9139 27.452 80.1859 28.18C79.4765 28.908 78.5992 29.4867 77.5539 29.916C76.5085 30.3267 75.3045 30.532 73.9419 30.532ZM73.9419 26.752C74.8192 26.752 75.5472 26.5653 76.1259 26.192C76.7045 25.8187 77.1432 25.296 77.4419 24.624C77.7592 23.952 77.9179 23.2053 77.9179 22.384C77.9179 21.5067 77.7592 20.7413 77.4419 20.088C77.1245 19.416 76.6672 18.884 76.0699 18.492C75.4912 18.1 74.7819 17.904 73.9419 17.904C73.1205 17.904 72.4112 18.1 71.8139 18.492C71.2165 18.884 70.7592 19.416 70.4419 20.088C70.1432 20.7413 69.9939 21.5067 69.9939 22.384C69.9939 23.2053 70.1432 23.952 70.4419 24.624C70.7405 25.296 71.1885 25.8187 71.7859 26.192C72.3832 26.5653 73.1019 26.752 73.9419 26.752ZM91.5725 36.104C90.8258 36.104 90.0605 36.076 89.2765 36.02C88.4925 35.964 87.7738 35.8893 87.1205 35.796V32.016C87.7738 32.1093 88.4925 32.184 89.2765 32.24C90.0791 32.3147 90.8071 32.352 91.4605 32.352C92.6738 32.352 93.6538 32.212 94.4005 31.932C95.1658 31.652 95.7258 31.2227 96.0805 30.644C96.4351 30.084 96.6125 29.356 96.6125 28.46V25.408L97.4245 23.616C97.3871 24.9787 97.1165 26.1453 96.6125 27.116C96.1271 28.0867 95.4458 28.8333 94.5685 29.356C93.6911 29.86 92.6458 30.112 91.4325 30.112C90.3871 30.112 89.4351 29.9253 88.5765 29.552C87.7365 29.16 87.0178 28.6187 86.4205 27.928C85.8231 27.2373 85.3658 26.4347 85.0485 25.52C84.7311 24.5867 84.5725 23.5787 84.5725 22.496V21.852C84.5725 20.7693 84.7405 19.7613 85.0765 18.828C85.4125 17.8947 85.8978 17.0827 86.5325 16.392C87.1671 15.7013 87.9231 15.1693 88.8005 14.796C89.6778 14.404 90.6485 14.208 91.7125 14.208C92.9445 14.208 94.0085 14.4787 94.9045 15.02C95.8191 15.5613 96.5378 16.3547 97.0605 17.4C97.5831 18.4453 97.8631 19.7053 97.9005 21.18L97.2845 21.348V14.656H100.84V28.18C100.84 30.0653 100.504 31.5867 99.8325 32.744C99.1605 33.9013 98.1338 34.7507 96.7525 35.292C95.3898 35.8333 93.6631 36.104 91.5725 36.104ZM92.8325 26.332C93.5231 26.332 94.1485 26.1827 94.7085 25.884C95.2685 25.5667 95.7071 25.1187 96.0245 24.54C96.3605 23.9613 96.5285 23.2613 96.5285 22.44V21.628C96.5285 20.8253 96.3511 20.1533 95.9965 19.612C95.6605 19.052 95.2125 18.632 94.6525 18.352C94.0925 18.0533 93.4951 17.904 92.8605 17.904C92.1138 17.904 91.4511 18.0813 90.8725 18.436C90.2938 18.7907 89.8458 19.2853 89.5285 19.92C89.2111 20.5547 89.0525 21.3013 89.0525 22.16C89.0525 23.0373 89.2111 23.7933 89.5285 24.428C89.8645 25.044 90.3125 25.52 90.8725 25.856C91.4511 26.1733 92.1045 26.332 92.8325 26.332ZM112.196 30.532C110.852 30.532 109.657 30.3267 108.612 29.916C107.566 29.4867 106.68 28.908 105.952 28.18C105.242 27.452 104.701 26.6213 104.328 25.688C103.954 24.736 103.768 23.7373 103.768 22.692V22.048C103.768 20.984 103.954 19.976 104.328 19.024C104.72 18.0533 105.28 17.204 106.008 16.476C106.754 15.748 107.65 15.1787 108.696 14.768C109.741 14.3387 110.908 14.124 112.196 14.124C113.521 14.124 114.697 14.3387 115.724 14.768C116.769 15.1787 117.656 15.748 118.384 16.476C119.112 17.204 119.672 18.0533 120.064 19.024C120.456 19.976 120.652 20.984 120.652 22.048V22.692C120.652 23.7373 120.465 24.736 120.092 25.688C119.718 26.6213 119.168 27.452 118.44 28.18C117.73 28.908 116.853 29.4867 115.808 29.916C114.762 30.3267 113.558 30.532 112.196 30.532ZM112.196 26.752C113.073 26.752 113.801 26.5653 114.38 26.192C114.958 25.8187 115.397 25.296 115.696 24.624C116.013 23.952 116.172 23.2053 116.172 22.384C116.172 21.5067 116.013 20.7413 115.696 20.088C115.378 19.416 114.921 18.884 114.324 18.492C113.745 18.1 113.036 17.904 112.196 17.904C111.374 17.904 110.665 18.1 110.068 18.492C109.47 18.884 109.013 19.416 108.696 20.088C108.397 20.7413 108.248 21.5067 108.248 22.384C108.248 23.2053 108.397 23.952 108.696 24.624C108.994 25.296 109.442 25.8187 110.04 26.192C110.637 26.5653 111.356 26.752 112.196 26.752Z" fill="white"/>
<rect x="3" width="40" height="39" rx="11" fill="white"/>
<mask id="mask0_495_869" style="mask-type:luminance" maskUnits="userSpaceOnUse" x="3" y="0" width="40" height="39">
<rect x="3" width="40" height="39" rx="11" fill="white"/>
</mask>
<g mask="url(#mask0_495_869)">
<path fill-rule="evenodd" clip-rule="evenodd" d="M36.3186 14.2535C19.7979 19.3737 23.5657 28.2122 22.1892 30.7373C20.8123 33.2624 23.4934 37.05 23.4934 37.05C24.8699 30.036 15.5229 32.2803 37.6225 27.6509C59.7224 23.0213 53.0561 -1.94995 53.0561 -1.94995C53.0561 -1.94995 48.9985 7.9404 32.8404 9.20295C16.6824 10.4655 21.7545 29.9656 21.7545 29.9656C23.2037 24.0034 16.9721 17.8307 33.0578 14.0427C49.1435 10.2551 50.013 4.64364 50.013 4.64364C50.013 4.64364 52.8388 9.13291 36.3186 14.2535Z" fill="#F2C470"/>
<path fill-rule="evenodd" clip-rule="evenodd" d="M10.9186 25.26C20.291 25.9843 19.445 31.2697 20.4972 32.4732C21.549 33.6766 20.6242 36.0751 20.6242 36.0751C18.9925 32.4262 24.2112 32.4808 11.9601 32.721C-0.290936 32.9609 0.000601741 18.5251 0.000601741 18.5251C0.000601741 18.5251 3.41724 23.4056 12.1005 22.0743C20.784 20.7423 20.6265 31.9988 20.6265 31.9988C19.0926 28.9317 21.5818 24.7907 12.6106 24.7378C3.63936 24.6846 2.45667 21.7366 2.45667 21.7366C2.45667 21.7366 1.54602 24.5351 10.9186 25.26Z" fill="#F2C470"/>
<path fill-rule="evenodd" clip-rule="evenodd" d="M16.5105 14.8089C13.7892 20.8218 17.4015 22.0545 17.8021 23.1019C18.2029 24.1489 20.0252 24.3751 20.0252 24.3751C18.2824 22.1595 16.5477 25.3921 20.8518 17.9261C25.1556 10.4604 15.9739 5.8501 15.9739 5.8501C15.9739 5.8501 17.8867 9.57364 14.1052 14.4798C10.3237 19.3862 17.4593 23.024 17.4593 23.024C16.0498 21.0617 12.6004 21.2208 15.6082 15.6778C18.616 10.1351 17.1621 8.42807 17.1621 8.42807C17.1621 8.42807 19.2315 8.79593 16.5105 14.8089Z" fill="#F2C470"/>
</g>
</svg>
