<svg width="20" height="20" viewBox="0 0 20 20" fill="none" xmlns="http://www.w3.org/2000/svg">
<g clip-path="url(#clip0_495_663)">
<path d="M10.4037 18.4794L9.83562 18.6313C9.62374 18.6881 9.39947 18.6783 9.19335 18.6032C8.98724 18.528 8.80929 18.3912 8.68375 18.2113L6.25187 14.7431L10.34 15.1791L11.1159 17.0272C11.3637 17.6272 11.0319 18.3113 10.4037 18.4794ZM2.51187 7.52313L1.19187 7.87907C0.335935 8.11094 -0.176252 8.99094 0.0559352 9.84719L0.891873 12.9672C0.946329 13.171 1.04052 13.3621 1.16903 13.5294C1.29754 13.6967 1.45784 13.837 1.64072 13.9421C1.8236 14.0473 2.02546 14.1153 2.2347 14.1422C2.44394 14.1692 2.65644 14.1545 2.86 14.0991L4.18 13.7472L2.51187 7.52313ZM15.6662 13.8081L12.4303 1.72969C12.4079 1.64569 12.3653 1.56842 12.3063 1.50456C12.2473 1.44071 12.1736 1.39219 12.0916 1.3632C12.0096 1.33422 11.9218 1.32563 11.8358 1.3382C11.7498 1.35076 11.6681 1.3841 11.5978 1.43532L3.67031 7.21469L5.3375 13.4366L15.0925 14.4784C15.1789 14.4877 15.2662 14.4758 15.3469 14.4437C15.4277 14.4116 15.4994 14.3604 15.5559 14.2944C15.6124 14.2284 15.6519 14.1496 15.6712 14.0649C15.6904 13.9802 15.6887 13.892 15.6662 13.8081ZM16.1572 3.80625C16.0632 3.80628 15.9709 3.78155 15.8895 3.73455C15.8081 3.68755 15.7405 3.61993 15.6936 3.53851C15.6466 3.45709 15.6219 3.36474 15.622 3.27075C15.6221 3.17677 15.647 3.08446 15.6941 3.00313L16.4681 1.66282C16.5033 1.60194 16.5501 1.54857 16.6058 1.50578C16.6616 1.46299 16.7253 1.43159 16.7932 1.4134C16.8611 1.39521 16.9319 1.39056 17.0016 1.39974C17.0713 1.40892 17.1385 1.43173 17.1994 1.46688C17.2603 1.50203 17.3136 1.54882 17.3564 1.60459C17.3992 1.66037 17.4306 1.72402 17.4488 1.79192C17.467 1.85983 17.4716 1.93065 17.4624 2.00034C17.4533 2.07004 17.4305 2.13725 17.3953 2.19813L16.6212 3.53844C16.5219 3.71032 16.3419 3.80625 16.1572 3.80625ZM16.9216 7.53407C16.7918 7.53378 16.6665 7.48637 16.5691 7.40067C16.4716 7.31497 16.4086 7.1968 16.3917 7.06812C16.3748 6.93944 16.4052 6.809 16.4773 6.70106C16.5493 6.59312 16.6581 6.51501 16.7834 6.48125L18.2784 6.08094C18.3464 6.06266 18.4173 6.05795 18.4871 6.0671C18.5569 6.07624 18.6241 6.09906 18.6851 6.13423C18.746 6.16941 18.7995 6.21627 18.8423 6.27211C18.8851 6.32796 18.9165 6.3917 18.9347 6.45969C18.9713 6.5969 18.952 6.74304 18.881 6.86603C18.81 6.98902 18.6931 7.07879 18.5559 7.11563L17.0609 7.51594C17.0155 7.52802 16.9686 7.53411 16.9216 7.53407ZM19.4641 11.9188C19.3702 11.9188 19.278 11.894 19.1969 11.8469L17.8566 11.0728C17.7957 11.0377 17.7423 10.9909 17.6995 10.9351C17.6567 10.8793 17.6253 10.8157 17.6071 10.7478C17.5704 10.6106 17.5896 10.4645 17.6606 10.3416C17.7316 10.2186 17.8485 10.1289 17.9857 10.0921C18.1228 10.0554 18.2689 10.0746 18.3919 10.1456L19.7322 10.9197C19.8346 10.9784 19.9147 11.0694 19.96 11.1784C20.0053 11.2875 20.0133 11.4084 19.9827 11.5224C19.9521 11.6365 19.8846 11.7372 19.7908 11.8088C19.697 11.8805 19.5821 11.9192 19.4641 11.9188Z" fill="white"/>
</g>
<defs>
<clipPath id="clip0_495_663">
<rect width="20" height="20" fill="white"/>
</clipPath>
</defs>
</svg>
