<svg width="24" height="24" viewBox="0 0 24 24" fill="none" xmlns="http://www.w3.org/2000/svg">
<path d="M2.625 8.49375H2.69625V9.3825H11.8125C11.7448 9.18402 11.7342 8.97051 11.7819 8.7663C11.8297 8.56209 11.9338 8.3754 12.0825 8.2275L13.2938 7.02C13.4106 6.90183 13.5524 6.81123 13.7088 6.75479C13.8651 6.69835 14.0321 6.6775 14.1975 6.69375V5.88C14.1973 5.5817 14.0787 5.29566 13.8678 5.08473C13.6568 4.87379 13.3708 4.7552 13.0725 4.755H2.625C2.32691 4.7559 2.04127 4.87471 1.83049 5.08549C1.6197 5.29628 1.50089 5.58191 1.5 5.88V7.36875C1.50089 7.66685 1.6197 7.95248 1.83049 8.16327C2.04127 8.37405 2.32691 8.49286 2.625 8.49375ZM6.3675 6.2475C6.46696 6.2475 6.56234 6.28701 6.63267 6.35734C6.70299 6.42767 6.7425 6.52305 6.7425 6.6225C6.7425 6.72196 6.70299 6.81734 6.63267 6.88767C6.56234 6.958 6.46696 6.9975 6.3675 6.9975C6.26804 6.9975 6.17266 6.958 6.10233 6.88767C6.03201 6.81734 5.9925 6.72196 5.9925 6.6225C5.9925 6.52305 6.03201 6.42767 6.10233 6.35734C6.17266 6.28701 6.26804 6.2475 6.3675 6.2475ZM4.8675 6.2475C4.96696 6.2475 5.06234 6.28701 5.13267 6.35734C5.20299 6.42767 5.2425 6.52305 5.2425 6.6225C5.2425 6.72196 5.20299 6.81734 5.13267 6.88767C5.06234 6.958 4.96696 6.9975 4.8675 6.9975C4.76804 6.9975 4.67266 6.958 4.60233 6.88767C4.53201 6.81734 4.4925 6.72196 4.4925 6.6225C4.4925 6.52305 4.53201 6.42767 4.60233 6.35734C4.67266 6.28701 4.76804 6.2475 4.8675 6.2475ZM3.3675 6.2475C3.46696 6.2475 3.56234 6.28701 3.63267 6.35734C3.70299 6.42767 3.7425 6.52305 3.7425 6.6225C3.7425 6.72196 3.70299 6.81734 3.63267 6.88767C3.56234 6.958 3.46696 6.9975 3.3675 6.9975C3.26804 6.9975 3.17266 6.958 3.10233 6.88767C3.03201 6.81734 2.9925 6.72196 2.9925 6.6225C2.9925 6.52305 3.03201 6.42767 3.10233 6.35734C3.17266 6.28701 3.26804 6.2475 3.3675 6.2475ZM13.2938 16.98C13.131 16.7891 11.9629 15.7148 11.8837 15.5063H2.625C2.32691 15.5071 2.04127 15.626 1.83049 15.8367C1.6197 16.0475 1.50089 16.3332 1.5 16.6313V18.12C1.50089 18.4181 1.6197 18.7037 1.83049 18.9145C2.04127 19.1253 2.32691 19.2441 2.625 19.245H13.0725C13.3708 19.2448 13.6568 19.1262 13.8678 18.9153C14.0787 18.7043 14.1973 18.4183 14.1975 18.12V17.3063C14.0321 17.3225 13.8651 17.3017 13.7088 17.2452C13.5524 17.1888 13.4106 17.0982 13.2938 16.98ZM3.3675 17.7525C3.26804 17.7525 3.17266 17.713 3.10233 17.6427C3.03201 17.5723 2.9925 17.477 2.9925 17.3775C2.9925 17.278 3.03201 17.1827 3.10233 17.1123C3.17266 17.042 3.26804 17.0025 3.3675 17.0025C3.46696 17.0025 3.56234 17.042 3.63267 17.1123C3.70299 17.1827 3.7425 17.278 3.7425 17.3775C3.7425 17.477 3.70299 17.5723 3.63267 17.6427C3.56234 17.713 3.46696 17.7525 3.3675 17.7525ZM4.8675 17.7525C4.76804 17.7525 4.67266 17.713 4.60233 17.6427C4.53201 17.5723 4.4925 17.477 4.4925 17.3775C4.4925 17.278 4.53201 17.1827 4.60233 17.1123C4.67266 17.042 4.76804 17.0025 4.8675 17.0025C4.96696 17.0025 5.06234 17.042 5.13267 17.1123C5.20299 17.1827 5.2425 17.278 5.2425 17.3775C5.2425 17.477 5.20299 17.5723 5.13267 17.6427C5.06234 17.713 4.96696 17.7525 4.8675 17.7525ZM6.3675 17.7525C6.26804 17.7525 6.17266 17.713 6.10233 17.6427C6.03201 17.5723 5.9925 17.477 5.9925 17.3775C5.9925 17.278 6.03201 17.1827 6.10233 17.1123C6.17266 17.042 6.26804 17.0025 6.3675 17.0025C6.46696 17.0025 6.56234 17.042 6.63267 17.1123C6.70299 17.1827 6.7425 17.278 6.7425 17.3775C6.7425 17.477 6.70299 17.5723 6.63267 17.6427C6.56234 17.713 6.46696 17.7525 6.3675 17.7525ZM2.625 13.8675H2.69625V14.7563H11.775C11.8132 14.5748 11.8942 14.4051 12.0112 14.2613L12.2175 14.01L11.8875 13.9763C11.6094 13.9492 11.3514 13.8192 11.1641 13.6117C10.9768 13.4043 10.8737 13.1345 10.875 12.855V11.145C10.874 10.934 10.9326 10.7271 11.0441 10.5479C11.1555 10.3688 11.3153 10.2248 11.505 10.1325H2.625C2.32669 10.1327 2.04066 10.2513 1.82972 10.4622C1.61879 10.6732 1.5002 10.9592 1.5 11.2575V12.7425C1.5002 13.0408 1.61879 13.3268 1.82972 13.5378C2.04066 13.7487 2.32669 13.8673 2.625 13.8675ZM6.3675 11.625C6.46696 11.625 6.56234 11.6645 6.63267 11.7348C6.70299 11.8052 6.7425 11.9005 6.7425 12C6.7425 12.0995 6.70299 12.1948 6.63267 12.2652C6.56234 12.3355 6.46696 12.375 6.3675 12.375C6.26804 12.375 6.17266 12.3355 6.10233 12.2652C6.03201 12.1948 5.9925 12.0995 5.9925 12C5.9925 11.9005 6.03201 11.8052 6.10233 11.7348C6.17266 11.6645 6.26804 11.625 6.3675 11.625ZM4.8675 11.625C4.96696 11.625 5.06234 11.6645 5.13267 11.7348C5.20299 11.8052 5.2425 11.9005 5.2425 12C5.2425 12.0995 5.20299 12.1948 5.13267 12.2652C5.06234 12.3355 4.96696 12.375 4.8675 12.375C4.76804 12.375 4.67266 12.3355 4.60233 12.2652C4.53201 12.1948 4.4925 12.0995 4.4925 12C4.4925 11.9005 4.53201 11.8052 4.60233 11.7348C4.67266 11.6645 4.76804 11.625 4.8675 11.625ZM3.3675 11.625C3.46696 11.625 3.56234 11.6645 3.63267 11.7348C3.70299 11.8052 3.7425 11.9005 3.7425 12C3.7425 12.0995 3.70299 12.1948 3.63267 12.2652C3.56234 12.3355 3.46696 12.375 3.3675 12.375C3.26804 12.375 3.17266 12.3355 3.10233 12.2652C3.03201 12.1948 2.9925 12.0995 2.9925 12C2.9925 11.9005 3.03201 11.8052 3.10233 11.7348C3.17266 11.6645 3.26804 11.625 3.3675 11.625Z" fill="white"/>
<path d="M22.1625 10.77L21.3 10.6838C21.2199 10.6696 21.1448 10.6354 21.0814 10.5845C21.0181 10.5335 20.9686 10.4674 20.9375 10.3923C20.9065 10.3171 20.8949 10.2354 20.9039 10.1546C20.9128 10.0738 20.942 9.99654 20.9887 9.93L21.5362 9.26251C21.5957 9.19095 21.6263 9.09982 21.6221 9.00691C21.618 8.91399 21.5793 8.82596 21.5137 8.76L20.3025 7.54875C20.2365 7.48317 20.1485 7.44453 20.0556 7.44037C19.9627 7.43621 19.8715 7.46683 19.8 7.52625L19.1287 8.07375C19.0622 8.11931 18.9853 8.14753 18.9051 8.15585C18.8249 8.16418 18.7439 8.15235 18.6694 8.12144C18.5949 8.09053 18.5293 8.04151 18.4785 7.97883C18.4278 7.91615 18.3935 7.84179 18.3787 7.76251L18.2925 6.9C18.2832 6.80718 18.2396 6.72117 18.1702 6.65876C18.1009 6.59636 18.0108 6.56204 17.9175 6.5625H16.2075C16.1142 6.56204 16.0241 6.59636 15.9548 6.65876C15.8854 6.72117 15.8418 6.80718 15.8325 6.9L15.7462 7.76251C15.7315 7.84179 15.6972 7.91615 15.6465 7.97883C15.5957 8.04151 15.5301 8.09053 15.4556 8.12144C15.3811 8.15235 15.3001 8.16418 15.2199 8.15585C15.1397 8.14753 15.0628 8.11931 14.9962 8.07375L14.325 7.52625C14.2534 7.46683 14.1623 7.43621 14.0694 7.44037C13.9765 7.44453 13.8885 7.48317 13.8225 7.54875L12.6112 8.76C12.5457 8.82596 12.507 8.91399 12.5029 9.00691C12.4987 9.09982 12.5293 9.19095 12.5887 9.26251L13.1362 9.93375C13.1819 10.0003 13.2102 10.0772 13.2186 10.1574C13.227 10.2377 13.2151 10.3187 13.1842 10.3932C13.1533 10.4678 13.1042 10.5334 13.0415 10.5841C12.9788 10.6348 12.9043 10.6691 12.825 10.6838L11.9625 10.77C11.8697 10.7793 11.7837 10.8229 11.7213 10.8923C11.6589 10.9616 11.6245 11.0517 11.625 11.145V12.855C11.6245 12.9483 11.6589 13.0384 11.7213 13.1077C11.7837 13.1771 11.8697 13.2207 11.9625 13.23L12.825 13.3163C12.9046 13.3312 12.9793 13.3657 13.0422 13.4168C13.105 13.4678 13.1542 13.5338 13.1851 13.6087C13.216 13.6836 13.2277 13.765 13.2192 13.8455C13.2107 13.9261 13.1822 14.0033 13.1362 14.07L12.5887 14.7375C12.5293 14.8091 12.4987 14.9002 12.5029 14.9931C12.507 15.086 12.5457 15.1741 12.6112 15.24L13.8225 16.4513C13.8885 16.5168 13.9765 16.5555 14.0694 16.5596C14.1623 16.5638 14.2534 16.5332 14.325 16.4738L14.9962 15.9263C15.0628 15.8807 15.1397 15.8525 15.2199 15.8442C15.3001 15.8358 15.3811 15.8477 15.4556 15.8786C15.5301 15.9095 15.5957 15.9585 15.6465 16.0212C15.6972 16.0839 15.7315 16.1582 15.7462 16.2375L15.8325 17.1C15.8418 17.1928 15.8854 17.2788 15.9548 17.3412C16.0241 17.4037 16.1142 17.438 16.2075 17.4375H17.9175C18.0108 17.438 18.1009 17.4037 18.1702 17.3412C18.2396 17.2788 18.2832 17.1928 18.2925 17.1L18.3787 16.2375C18.3911 16.1549 18.4255 16.0772 18.4783 16.0125C18.5311 15.9479 18.6003 15.8986 18.6787 15.87C18.7521 15.839 18.8323 15.8279 18.9113 15.8378C18.9903 15.8476 19.0653 15.8782 19.1287 15.9263L19.8 16.4738C19.8715 16.5332 19.9627 16.5638 20.0556 16.5596C20.1485 16.5555 20.2365 16.5168 20.3025 16.4513L21.5137 15.24C21.5793 15.1741 21.618 15.086 21.6221 14.9931C21.6263 14.9002 21.5957 14.8091 21.5362 14.7375L20.9887 14.0663C20.9431 13.9997 20.9148 13.9228 20.9064 13.8426C20.898 13.7624 20.9098 13.6813 20.9408 13.6068C20.9717 13.5322 21.0208 13.4666 21.0835 13.4159C21.1462 13.3652 21.2207 13.3309 21.3 13.3163L22.1625 13.23C22.2553 13.2207 22.3413 13.1771 22.4037 13.1077C22.4661 13.0384 22.5005 12.9483 22.5 12.855V11.145C22.5005 11.0517 22.4661 10.9616 22.4037 10.8923C22.3413 10.8229 22.2553 10.7793 22.1625 10.77ZM17.0625 13.875C14.5841 13.7978 14.5849 10.2019 17.0625 10.125C19.5409 10.2023 19.5401 13.7981 17.0625 13.875Z" fill="white"/>
</svg>
