<svg width="16" height="16" viewBox="0 0 16 16" fill="none" xmlns="http://www.w3.org/2000/svg">
<path fill-rule="evenodd" clip-rule="evenodd" d="M7.16667 8.83334C7.16667 9.05436 7.25446 9.26632 7.41074 9.4226C7.56702 9.57888 7.77899 9.66668 8 9.66668C8.22101 9.66668 8.43297 9.57888 8.58926 9.4226C8.74553 9.26632 8.83333 9.05436 8.83333 8.83334V6.33334C8.83333 6.11233 8.74553 5.90037 8.58926 5.74409C8.43297 5.58781 8.22101 5.50001 8 5.50001C7.77899 5.50001 7.56702 5.58781 7.41074 5.74409C7.25446 5.90037 7.16667 6.11233 7.16667 6.33334V8.83334ZM8.83333 11.3242C8.83333 11.1032 8.74553 10.8912 8.58926 10.7349C8.43297 10.5786 8.22101 10.4908 8 10.4908C7.77899 10.4908 7.56702 10.5786 7.41074 10.7349C7.25446 10.8912 7.16667 11.1032 7.16667 11.3242V11.3333C7.16667 11.5544 7.25446 11.7663 7.41074 11.9226C7.56702 12.0789 7.77899 12.1667 8 12.1667C8.22101 12.1667 8.43297 12.0789 8.58926 11.9226C8.74553 11.7663 8.83333 11.5544 8.83333 11.3333V11.3242ZM5.81417 1.88334C6.76667 0.169176 9.2325 0.169176 10.185 1.88334L15.6858 11.785C16.6117 13.4517 15.4067 15.4992 13.5008 15.4992H2.49917C0.5925 15.4992 -0.6125 13.4517 0.313333 11.785L5.81417 1.88334Z" fill="white"/>
</svg>
