<svg width="20" height="16" viewBox="0 0 20 16" fill="none" xmlns="http://www.w3.org/2000/svg">
<path d="M14.2188 5.57825C13.3143 5.57825 12.5783 6.31418 12.5783 7.21876C12.5783 8.41938 13.8309 9.2111 14.9118 8.7052L14.6236 8.417C14.3948 8.18821 14.3948 7.81719 14.6236 7.58836C14.8524 7.35958 15.2234 7.35958 15.4522 7.58836L15.7272 7.86333C16.1898 6.78532 15.3939 5.57825 14.2188 5.57825Z" fill="white"/>
<path d="M18.2421 0.753845H1.75781C0.788555 0.753845 0 1.5424 0 2.51166V11.926C0 12.8953 0.788555 13.6838 1.75781 13.6838H8.53516L9.53125 15.0119C9.7657 15.3245 10.2348 15.3238 10.4688 15.0119L11.4648 13.6838H18.2421C19.2114 13.6838 20 12.8953 20 11.926V2.51166C20 1.5424 19.2114 0.753845 18.2421 0.753845ZM5.18699 6.60728C5.51059 6.60728 5.77293 6.86963 5.77293 7.19322C5.77293 7.51681 5.51059 7.77916 5.18699 7.77916H4.12367V9.44517C4.12367 9.76877 3.86129 10.0311 3.53773 10.0311C3.21414 10.0311 2.9518 9.76877 2.9518 9.44517V5.02494C2.9518 4.70135 3.21414 4.439 3.53773 4.439H5.32926C5.65285 4.439 5.9152 4.70135 5.9152 5.02494C5.9152 5.34853 5.65285 5.61088 5.32926 5.61088H4.12367V6.60728H5.18699ZM10.4609 9.99338C10.158 10.1077 9.82008 9.95474 9.70582 9.65205L9.43621 8.93771H7.55871L7.28598 9.65377C7.17059 9.95666 6.83164 10.1078 6.52988 9.99275C6.2275 9.8776 6.0757 9.53908 6.19086 9.23662L7.86289 4.84646C7.9584 4.59228 8.20805 4.40666 8.50324 4.40635C8.63957 4.40588 8.77292 4.44614 8.88621 4.52196C8.9995 4.59779 9.08756 4.70572 9.1391 4.83193C9.14477 4.84572 9.07051 4.64939 10.8023 9.2383C10.9165 9.54103 10.7636 9.87916 10.4609 9.99338ZM16.8767 9.84154C16.6479 10.0704 16.2769 10.0704 16.0481 9.84154L15.7698 9.56322C15.3248 9.85853 14.7917 10.0311 14.2188 10.0311C12.668 10.0311 11.4064 8.76951 11.4064 7.21877C11.4064 5.66803 12.668 4.40638 14.2188 4.40638C15.7695 4.40638 17.0312 5.66803 17.0312 7.21877C17.0312 7.77346 16.8691 8.29072 16.5907 8.72689L16.8767 9.01287C17.1055 9.2417 17.1055 9.61271 16.8767 9.84154Z" fill="white"/>
<path d="M8.00501 7.76586H8.994L8.50177 6.46149L8.00501 7.76586Z" fill="white"/>
</svg>
