<svg width="24" height="24" viewBox="0 0 24 24" fill="none" xmlns="http://www.w3.org/2000/svg">
<path d="M23.8242 1.42257L22.6241 0.222663C22.3901 -0.0115241 22.0104 -0.0117116 21.7762 0.222288C21.776 0.222476 21.7758 0.222476 21.7758 0.222663L14.5757 7.42257C14.4633 7.53511 14.4 7.68768 14.4 7.84679V9.04688C14.4 9.3781 14.6685 9.64674 15 9.64674H16.2001C16.3592 9.64674 16.5117 9.58355 16.6241 9.47115L23.8242 2.27105C24.0584 2.03687 24.0586 1.65727 23.8246 1.4229L23.8243 1.42281L23.8242 1.42257Z" fill="white"/>
<path d="M16.2001 10.8468H15C14.0063 10.8457 13.201 10.0404 13.1999 9.04687V7.84678C13.1994 7.61034 13.2457 7.37614 13.3362 7.15771C13.4267 6.93928 13.5596 6.74096 13.7273 6.57421L17.8546 2.44687H3C1.34381 2.44865 0.001875 3.79063 0 5.44687V16.2468C0.001875 17.903 1.34381 19.2451 3 19.2468H8.4V22.2468C8.4 22.5782 8.66859 22.8468 9 22.8468C9.12984 22.8468 9.25617 22.8047 9.36 22.7267L14.0006 19.2468H19.7999C21.4561 19.2449 22.7983 17.9028 22.7999 16.2468V4.99218L17.4727 10.3194C17.3059 10.4871 17.1076 10.62 16.8892 10.7105C16.6707 10.801 16.4365 10.8473 16.2001 10.8468ZM4.20009 6.04687H10.2001C10.5313 6.04687 10.7999 6.31546 10.7999 6.64687C10.7999 6.97813 10.5313 7.24678 10.2001 7.24678H4.20009C3.86869 7.24678 3.60005 6.97832 3.60005 6.64692C3.60005 6.31551 3.86859 6.04687 4.2 6.04687H4.20009ZM4.20009 9.64673H10.2001C10.5313 9.64673 10.7999 9.91532 10.7999 10.2467C10.7999 10.5782 10.5313 10.8468 10.2001 10.8468H4.20009C3.86869 10.8468 3.60005 10.5782 3.60005 10.2468C3.60005 9.91551 3.86869 9.64673 4.20009 9.64673ZM19.1999 13.8468C19.1999 14.1782 18.9313 14.4468 18.6 14.4468H4.2C3.86859 14.4468 3.6 14.1782 3.6 13.8468C3.6 13.5156 3.86859 13.2468 4.2 13.2468H18.6C18.9312 13.2468 19.1999 13.5154 19.1999 13.8468H19.1999Z" fill="white"/>
</svg>
