<svg width="20" height="20" viewBox="0 0 20 20" fill="none" xmlns="http://www.w3.org/2000/svg">
<path d="M4.97651 15.0203C5.02473 15.0077 5.07371 15.0004 5.12346 15.0004L16.3609 15.0033H16.5609C16.902 15.0033 17.1787 14.7266 17.1787 14.3855V1.30074C17.1787 0.959645 16.902 0.690918 16.5609 0.690918H4.67509C3.65109 0.690918 2.82127 1.5287 2.82127 2.5527V17.4552C2.82127 18.4792 3.65109 19.3091 4.67509 19.3091H16.6529C16.9435 19.3091 17.1787 19.0738 17.1787 18.7832C17.1787 18.4927 16.9435 18.2574 16.6529 18.2574H5.12346C4.98724 18.2574 4.85622 18.2355 4.73335 18.1956C4.04942 18.0044 3.54607 17.3761 3.54607 16.632C3.54611 15.8022 4.17204 15.1162 4.97651 15.0203ZM7.29218 3.76652H12.7078C12.9087 3.76652 13.0715 3.92935 13.0715 4.13015C13.0715 4.33099 12.9087 4.49379 12.7078 4.49379H7.29218C7.09135 4.49379 6.92855 4.33099 6.92855 4.13015C6.92855 3.92935 7.09135 3.76652 7.29218 3.76652ZM5.94709 5.67492H14.0529C14.2537 5.67492 14.4165 5.83772 14.4165 6.03855C14.4165 6.23935 14.2537 6.40219 14.0529 6.40219H5.94709C5.74626 6.40219 5.58346 6.23935 5.58346 6.03855C5.58346 5.83768 5.74626 5.67492 5.94709 5.67492ZM5.94709 7.58288H14.0529C14.2537 7.58288 14.4165 7.74572 14.4165 7.94652C14.4165 8.14736 14.2537 8.31015 14.0529 8.31015H5.94709C5.74626 8.31015 5.58346 8.14736 5.58346 7.94652C5.58346 7.74572 5.74626 7.58288 5.94709 7.58288Z" fill="white"/>
<path d="M16.0435 15.7385L5.16964 15.7357C4.80484 15.7357 4.49019 15.9549 4.35048 16.2684H16.0436V15.7385H16.0435ZM5.16971 17.5284H16.0435V16.9957H4.35044C4.49019 17.3093 4.80488 17.5284 5.16971 17.5284Z" fill="white"/>
</svg>
