<svg width="20" height="20" viewBox="0 0 20 20" fill="none" xmlns="http://www.w3.org/2000/svg">
<g clip-path="url(#clip0_495_626)">
<path d="M13.75 6.875C12.6375 6.875 11.5499 7.2049 10.6249 7.82298C9.69989 8.44107 8.97892 9.31957 8.55318 10.3474C8.12744 11.3752 8.01604 12.5062 8.23309 13.5974C8.45013 14.6885 8.98586 15.6908 9.77253 16.4775C10.5592 17.2641 11.5615 17.7999 12.6526 18.0169C13.7438 18.234 14.8748 18.1226 15.9026 17.6968C16.9304 17.2711 17.8089 16.5501 18.427 15.6251C19.0451 14.7001 19.375 13.6125 19.375 12.5C19.375 11.0082 18.7824 9.57742 17.7275 8.52252C16.6726 7.46763 15.2418 6.875 13.75 6.875ZM12.6563 9.375H13.9063V10.6938H12.6563V9.375ZM15.3125 15.625H12.1875V14.375H13.125V12.8437H12.1875V11.5937H13.75C13.9158 11.5937 14.0747 11.6596 14.1919 11.7768C14.3092 11.894 14.375 12.053 14.375 12.2187V14.375H15.3125V15.625Z" fill="white"/>
<path d="M7.99375 16.25H3.125V15H7.35C7.03846 14.2032 6.8774 13.3555 6.875 12.5H3.125V11.25H6.99375C7.26667 9.77691 8.01331 8.43329 9.12007 7.42356C10.2268 6.41383 11.6331 5.79325 13.125 5.65625V1.875C13.125 1.54348 12.9933 1.22554 12.7589 0.991117C12.5245 0.756696 12.2065 0.625 11.875 0.625H5L5.5875 2.39375C5.70041 2.73092 5.73157 3.09009 5.67842 3.44166C5.62527 3.79324 5.48932 4.12715 5.28179 4.41586C5.07425 4.70458 4.80107 4.93985 4.48476 5.10226C4.16845 5.26467 3.81807 5.34959 3.4625 5.35L3.125 5.33125L0.625 5V18.125C0.625 18.4565 0.756696 18.7745 0.991117 19.0089C1.22554 19.2433 1.54348 19.375 1.875 19.375H11.875C12.066 19.3738 12.2541 19.3289 12.425 19.2438C11.5239 19.0661 10.6674 18.7096 9.90636 18.1954C9.14527 17.6812 8.49493 17.0197 7.99375 16.25ZM7.5 3.125H10.625V4.375H7.5V3.125ZM3.125 7.5H6.875V8.75H3.125V7.5Z" fill="white"/>
<path d="M4.19375 3.75001C4.30562 3.6195 4.38124 3.4619 4.41305 3.29299C4.44486 3.12407 4.43174 2.94976 4.375 2.78751L3.75 0.975006L0.993752 3.75001L3.29375 4.08126C3.45946 4.10473 3.6284 4.08675 3.78546 4.02895C3.94252 3.97114 4.0828 3.8753 4.19375 3.75001Z" fill="white"/>
</g>
<defs>
<clipPath id="clip0_495_626">
<rect width="20" height="20" fill="white"/>
</clipPath>
</defs>
</svg>
