<svg width="20" height="20" viewBox="0 0 20 20" fill="none" xmlns="http://www.w3.org/2000/svg">
<g clip-path="url(#clip0_495_640)">
<path d="M11.875 0H2.29167C1.025 0 0 1.025 0 2.29167V15.2083C0 16.475 1.025 17.5 2.29167 17.5H9.08333C8.38333 16.3917 7.91667 15.0833 7.91667 13.5833V11.55C7.79167 11.625 7.65 11.6667 7.5 11.6667H3.33333C2.875 11.6667 2.5 11.2917 2.5 10.8333C2.5 10.375 2.875 10 3.33333 10H7.5C7.65833 10 7.8 10.0417 7.925 10.1167C7.95833 9.40833 8.29167 8.75833 8.81667 8.33333H3.33333C2.875 8.33333 2.5 7.95833 2.5 7.5C2.5 7.04167 2.875 6.66667 3.33333 6.66667H10.8333C11.1833 6.66667 11.4833 6.88333 11.6083 7.19167L13.9833 6.38333C14.0417 6.35833 14.1 6.34167 14.1667 6.33333V2.29167C14.1667 1.025 13.1417 0 11.875 0ZM6.66667 5H3.33333C2.875 5 2.5 4.625 2.5 4.16667C2.5 3.70833 2.875 3.33333 3.33333 3.33333H6.66667C7.125 3.33333 7.5 3.70833 7.5 4.16667C7.5 4.625 7.125 5 6.66667 5Z" fill="white"/>
<path d="M19.435 9.44916L15.06 7.96083C14.8857 7.90165 14.6968 7.90165 14.5225 7.96083L10.1475 9.44916C9.98276 9.50532 9.83972 9.6116 9.73841 9.75311C9.63709 9.89463 9.58258 10.0643 9.5825 10.2383V13.5867C9.5825 17.8092 14.265 19.8492 14.4642 19.9342C14.5678 19.9775 14.679 19.9998 14.7913 19.9996C14.9037 19.9995 15.0148 19.9769 15.1183 19.9333C15.3175 19.8483 20 17.8092 20 13.5867V10.2383C20.0002 10.0642 19.9457 9.89445 19.8444 9.75289C19.743 9.61133 19.5999 9.5051 19.435 9.44916ZM17.75 12.5833L15.25 15.9167C15.1726 16.0204 15.0719 16.1045 14.9562 16.1624C14.8404 16.2202 14.7127 16.2503 14.5833 16.25C14.4739 16.2502 14.3655 16.2287 14.2643 16.1868C14.1632 16.1449 14.0714 16.0834 13.9942 16.0058L12.3275 14.3392C12.2501 14.2618 12.1888 14.1699 12.1469 14.0688C12.105 13.9678 12.0835 13.8594 12.0835 13.75C12.0835 13.6406 12.105 13.5322 12.1469 13.4311C12.1888 13.33 12.2501 13.2382 12.3275 13.1608C12.4049 13.0835 12.4967 13.0221 12.5978 12.9802C12.6989 12.9383 12.8072 12.9168 12.9167 12.9168C13.0261 12.9168 13.1344 12.9383 13.2355 12.9802C13.3366 13.0221 13.4285 13.0835 13.5058 13.1608L14.4933 14.1483L16.4167 11.5833C16.5493 11.4065 16.7467 11.2896 16.9655 11.2584C17.0738 11.2429 17.1841 11.2489 17.2901 11.2761C17.3962 11.3032 17.4958 11.351 17.5833 11.4167C17.6709 11.4823 17.7446 11.5646 17.8004 11.6587C17.8561 11.7529 17.8928 11.8571 17.9083 11.9655C17.9238 12.0738 17.9178 12.1841 17.8906 12.2901C17.8634 12.3962 17.8157 12.4958 17.75 12.5833Z" fill="white"/>
</g>
<defs>
<clipPath id="clip0_495_640">
<rect width="20" height="20" fill="white"/>
</clipPath>
</defs>
</svg>
