<svg width="16" height="18" viewBox="0 0 16 18" fill="none" xmlns="http://www.w3.org/2000/svg">
<path d="M8 10.2692C9.16016 10.2692 10.2324 9.94221 11.0902 9.38674C11.7547 8.96135 12.6195 9.03166 13.2031 9.56252C14.8238 11.0321 15.7449 13.1168 15.7414 15.3071V16.2457C15.7414 17.216 14.9539 18 13.9836 18H2.01641C1.04609 18 0.258593 17.216 0.258593 16.2457V15.3071C0.251561 13.1203 1.17265 11.0321 2.79336 9.56604C3.37695 9.03518 4.24531 8.96486 4.90625 9.39025C5.76758 9.94221 6.83633 10.2692 8 10.2692Z" fill="white"/>
<path d="M8 8.70469C10.4037 8.70469 12.3523 6.75608 12.3523 4.35234C12.3523 1.94861 10.4037 0 8 0C5.59626 0 3.64765 1.94861 3.64765 4.35234C3.64765 6.75608 5.59626 8.70469 8 8.70469Z" fill="white"/>
</svg>
