<svg width="24" height="24" viewBox="0 0 24 24" fill="none" xmlns="http://www.w3.org/2000/svg">
<g clip-path="url(#clip0_495_594)">
<path d="M12.4189 15.5215C10.2462 15.5215 8.47852 13.7538 8.47852 11.5811V9.88477H8.05144L4.02028 5.92112C3.92147 5.824 3.79617 5.75824 3.66012 5.73209C3.52407 5.70594 3.38332 5.72056 3.25555 5.77412C3.12778 5.82768 3.01867 5.9178 2.94193 6.03315C2.8652 6.1485 2.82424 6.28395 2.82422 6.42249V9.88473H2.53416C1.13681 9.88477 0 11.0216 0 12.419V21.4659C0 22.8632 1.13681 24 2.53416 24H11.581C12.9784 24 14.1152 22.8632 14.1152 21.4659V15.5215H12.4189ZM7.05759 18.3516C6.66928 18.3516 6.35447 18.0368 6.35447 17.6484V13.4121C6.35447 13.0238 6.66928 12.709 7.05759 12.709C7.44591 12.709 7.76072 13.0238 7.76072 13.4121V17.6484C7.76072 18.0368 7.44595 18.3516 7.05759 18.3516ZM7.76072 20.4727C7.77773 20.8524 7.42537 21.1758 7.05759 21.1758C6.66342 21.1758 6.37153 20.8536 6.35447 20.4727C6.33745 20.0929 6.68981 19.7695 7.05759 19.7695C7.45181 19.7695 7.74366 20.0917 7.76072 20.4727Z" fill="white"/>
<path d="M21.4658 0H12.419C11.0216 0 9.88481 1.13681 9.88481 2.53416V11.581C9.88481 12.9784 11.0216 14.1152 12.419 14.1152H15.9771L19.9358 18.1414C20.0012 18.208 20.0793 18.2608 20.1654 18.2969C20.2515 18.333 20.3439 18.3516 20.4373 18.3515C20.6238 18.3515 20.8026 18.2774 20.9344 18.1455C21.0662 18.0137 21.1403 17.8348 21.1403 17.6484V14.1152H21.4658C22.8632 14.1152 24 12.9784 24 11.581V2.53416C24 1.13681 22.8632 0 21.4658 0ZM16.9424 11.291C16.5482 11.291 16.2563 10.9688 16.2393 10.5879C16.2223 10.2082 16.5746 9.88477 16.9424 9.88477C17.3366 9.88477 17.6285 10.2069 17.6455 10.5879C17.6625 10.9676 17.3102 11.291 16.9424 11.291ZM18.2318 6.61631C17.8592 6.90309 17.6455 7.31934 17.6455 7.75837V7.76362C17.6455 8.15194 17.3307 8.46675 16.9424 8.46675C16.554 8.46675 16.2392 8.15194 16.2392 7.76362V7.75837C16.2392 6.87942 16.6529 6.057 17.3741 5.50191C17.4664 5.43075 17.5399 5.338 17.588 5.23181C17.6361 5.12562 17.6573 5.00925 17.6499 4.89291C17.6282 4.54392 17.3379 4.25353 16.9889 4.23183C16.7899 4.22002 16.601 4.28728 16.457 4.42256C16.3128 4.55813 16.2334 4.74164 16.2334 4.93936C16.2334 5.32767 15.9186 5.64248 15.5302 5.64248C15.1419 5.64248 14.8271 5.32767 14.8271 4.93936C14.8271 4.35797 15.0702 3.79608 15.494 3.39783C15.9238 2.99395 16.4854 2.79211 17.076 2.82825C18.1375 2.89416 18.9876 3.74428 19.0535 4.80572C19.0753 5.15174 19.0118 5.49782 18.8685 5.81354C18.7253 6.12926 18.5066 6.40493 18.2318 6.61631Z" fill="white"/>
</g>
<defs>
<clipPath id="clip0_495_594">
<rect width="24" height="24" fill="white"/>
</clipPath>
</defs>
</svg>
