<svg width="16" height="16" viewBox="0 0 16 16" fill="none" xmlns="http://www.w3.org/2000/svg">
<path d="M12.575 5.13L13.355 4.355C13.4016 4.30838 13.4386 4.25304 13.4638 4.19212C13.489 4.13121 13.502 4.06593 13.502 4C13.502 3.93407 13.489 3.86879 13.4638 3.80788C13.4386 3.74696 13.4016 3.69162 13.355 3.645C13.3083 3.59838 13.253 3.5614 13.1921 3.53617C13.1312 3.51094 13.0659 3.49795 13 3.49795C12.934 3.49795 12.8687 3.51094 12.8078 3.53617C12.7469 3.5614 12.6916 3.59838 12.645 3.645L11.87 4.425C10.921 3.61687 9.7422 3.12716 8.49996 3.025V2H9.49996C9.63256 2 9.75974 1.94732 9.85351 1.85355C9.94728 1.75979 9.99996 1.63261 9.99996 1.5C9.99996 1.36739 9.94728 1.24021 9.85351 1.14645C9.75974 1.05268 9.63256 1 9.49996 1H6.49996C6.36735 1 6.24017 1.05268 6.1464 1.14645C6.05263 1.24021 5.99996 1.36739 5.99996 1.5C5.99996 1.63261 6.05263 1.75979 6.1464 1.85355C6.24017 1.94732 6.36735 2 6.49996 2H7.49996V3.025C6.15904 3.13574 4.89426 3.69397 3.90878 4.61002C2.9233 5.52607 2.27431 6.74677 2.06608 8.07604C1.85784 9.40531 2.10244 10.766 2.76058 11.9395C3.41872 13.1131 4.4522 14.0313 5.69501 14.5468C6.93783 15.0623 8.31784 15.1451 9.61338 14.7819C10.9089 14.4187 12.0448 13.6306 12.8385 12.5442C13.6323 11.4578 14.0378 10.1361 13.99 8.79149C13.9422 7.44686 13.4438 6.15731 12.575 5.13ZM7.99996 14C7.01105 14 6.04435 13.7068 5.2221 13.1573C4.39986 12.6079 3.759 11.827 3.38056 10.9134C3.00212 9.99979 2.9031 8.99445 3.09603 8.02455C3.28896 7.05464 3.76516 6.16373 4.46442 5.46447C5.16368 4.7652 6.0546 4.289 7.0245 4.09607C7.99441 3.90315 8.99974 4.00216 9.91337 4.3806C10.827 4.75904 11.6079 5.3999 12.1573 6.22215C12.7067 7.04439 13 8.01109 13 9C13 9.65661 12.8706 10.3068 12.6194 10.9134C12.3681 11.52 11.9998 12.0712 11.5355 12.5355C11.0712 12.9998 10.52 13.3681 9.91337 13.6194C9.30675 13.8707 8.65657 14 7.99996 14Z" fill="white"/>
<path d="M8 5C7.20888 5 6.43552 5.2346 5.77772 5.67412C5.11992 6.11365 4.60723 6.73836 4.30448 7.46927C4.00173 8.20017 3.92252 9.00444 4.07686 9.78036C4.2312 10.5563 4.61216 11.269 5.17157 11.8284C5.73098 12.3878 6.44372 12.7688 7.21964 12.9231C7.99556 13.0775 8.79983 12.9983 9.53074 12.6955C10.2616 12.3928 10.8864 11.8801 11.3259 11.2223C11.7654 10.5645 12 9.79113 12 9C12 7.93913 11.5786 6.92172 10.8284 6.17157C10.0783 5.42143 9.06087 5 8 5ZM9.855 10.855C9.80852 10.9019 9.75322 10.9391 9.69229 10.9644C9.63136 10.9898 9.56601 11.0029 9.5 11.0029C9.434 11.0029 9.36864 10.9898 9.30771 10.9644C9.24678 10.9391 9.19148 10.9019 9.145 10.855L7.645 9.355C7.59866 9.30828 7.562 9.25287 7.53712 9.19195C7.51223 9.13103 7.49962 9.0658 7.5 9V6.5C7.5 6.36739 7.55268 6.24021 7.64645 6.14645C7.74022 6.05268 7.86739 6 8 6C8.13261 6 8.25979 6.05268 8.35356 6.14645C8.44732 6.24021 8.5 6.36739 8.5 6.5V8.795L9.855 10.145C9.90187 10.1915 9.93906 10.2468 9.96445 10.3077C9.98983 10.3686 10.0029 10.434 10.0029 10.5C10.0029 10.566 9.98983 10.6314 9.96445 10.6923C9.93906 10.7532 9.90187 10.8085 9.855 10.855Z" fill="white"/>
</svg>
