<svg width="24" height="16" viewBox="0 0 24 16" fill="none" xmlns="http://www.w3.org/2000/svg">
<path d="M16.08 9.33125C15.3097 8.64229 14.3122 8.26174 13.2787 8.2625H10.725C9.69076 8.26135 8.69277 8.64345 7.92375 9.335L7.91475 9.34363L7.9065 9.35188C7.47228 9.74454 7.1253 10.224 6.88797 10.7591C6.65065 11.2943 6.52827 11.8733 6.52875 12.4588V14.8888C6.52875 14.9882 6.56826 15.0836 6.63858 15.1539C6.70891 15.2242 6.80429 15.2638 6.90375 15.2638H17.1C17.1995 15.2638 17.2948 15.2242 17.3652 15.1539C17.4355 15.0836 17.475 14.9882 17.475 14.8888V12.4588C17.4758 11.8686 17.3519 11.285 17.1115 10.746C16.8711 10.207 16.5196 9.72494 16.08 9.33125ZM7.425 8.77625C7.72198 8.50837 8.05068 8.2779 8.40375 8.09C8.20255 7.44952 7.80256 6.88978 7.26179 6.49196C6.72102 6.09414 6.06759 5.87891 5.39625 5.8775H3.5325C2.69547 5.87879 1.8931 6.21187 1.30123 6.80374C0.709368 7.3956 0.376289 8.19798 0.375 9.035V10.805C0.375 10.9045 0.414509 10.9998 0.484835 11.0702C0.555161 11.1405 0.650544 11.18 0.75 11.18H5.95125C6.02755 10.8828 6.13307 10.5939 6.26625 10.3175C6.54646 9.73199 6.94036 9.20807 7.425 8.77625ZM20.4713 5.8775H18.6075C17.9362 5.87891 17.2827 6.09414 16.742 6.49196C16.2012 6.88978 15.8012 7.44952 15.6 8.09C15.9516 8.27881 16.2801 8.50784 16.5788 8.7725C17.0623 9.20533 17.456 9.72901 17.7375 10.3138C17.8707 10.5915 17.9762 10.8816 18.0525 11.18H23.25C23.3495 11.18 23.4448 11.1405 23.5152 11.0702C23.5855 10.9998 23.625 10.9045 23.625 10.805V9.035C23.6245 8.19838 23.2922 7.39612 22.701 6.80418C22.1097 6.21225 21.3079 5.87899 20.4713 5.8775ZM4.46625 5.5175C4.93907 5.51713 5.40116 5.37656 5.79409 5.11357C6.18702 4.85057 6.49314 4.47697 6.67374 4.04C6.85434 3.60303 6.9013 3.12231 6.8087 2.65865C6.71609 2.19499 6.48807 1.7692 6.15348 1.43513C5.81888 1.10105 5.39273 0.873702 4.92892 0.781823C4.46512 0.689944 3.98448 0.737663 3.54779 0.918947C3.1111 1.10023 2.73798 1.40693 2.4756 1.80028C2.21322 2.19362 2.07338 2.65593 2.07375 3.12875C2.07474 3.76263 2.32725 4.37021 2.77582 4.81808C3.22439 5.26595 3.83237 5.5175 4.46625 5.5175ZM19.5375 5.5175C20.0105 5.51787 20.4729 5.37793 20.8664 5.11539C21.2598 4.85285 21.5665 4.4795 21.7477 4.0426C21.9288 3.60569 21.9763 3.12486 21.8842 2.66095C21.792 2.19704 21.5642 1.7709 21.2298 1.43645C20.8954 1.102 20.4692 0.87428 20.0053 0.782097C19.5414 0.689914 19.0606 0.737414 18.6237 0.918587C18.1868 1.09976 17.8134 1.40646 17.5509 1.79989C17.2883 2.19331 17.1484 2.65577 17.1488 3.12875C17.1499 3.76192 17.402 4.36882 17.8497 4.81654C18.2974 5.26426 18.9043 5.51631 19.5375 5.5175ZM12 7.49C12.6221 7.49037 13.2302 7.30623 13.7476 6.96086C14.265 6.61549 14.6683 6.12443 14.9065 5.54979C15.1448 4.97516 15.2072 4.34277 15.0859 3.73265C14.9647 3.12253 14.6651 2.56208 14.2253 2.12222C13.7854 1.68236 13.225 1.38285 12.6149 1.26158C12.0047 1.14031 11.3723 1.20274 10.7977 1.44096C10.2231 1.67919 9.73201 2.0825 9.38664 2.59988C9.04128 3.11725 8.85713 3.72544 8.8575 4.3475C8.85879 5.18055 9.19029 5.97911 9.77934 6.56816C10.3684 7.15721 11.167 7.48871 12 7.49Z" fill="white"/>
</svg>
