<svg width="20" height="20" viewBox="0 0 20 20" fill="none" xmlns="http://www.w3.org/2000/svg">
<path fill-rule="evenodd" clip-rule="evenodd" d="M2.5 2.49999C2.5 2.27898 2.5878 2.06701 2.74408 1.91073C2.90036 1.75445 3.11232 1.66666 3.33333 1.66666H11.8942C12.1152 1.66666 12.3271 1.75445 12.4834 1.91073C12.6397 2.06701 12.7275 2.27898 12.7275 2.49999V17.5C12.7275 17.721 12.6397 17.933 12.4834 18.0892C12.3271 18.2455 12.1152 18.3333 11.8942 18.3333H3.33333C3.11232 18.3333 2.90036 18.2455 2.74408 18.0892C2.5878 17.933 2.5 17.721 2.5 17.5V2.49999ZM9.65833 3.74999H5.56917C5.00417 3.74999 4.54667 4.21666 4.54667 4.79166C4.54667 5.36666 5.00333 5.83332 5.56833 5.83332H9.65917C10.2242 5.83332 10.6817 5.36666 10.6817 4.79166C10.6817 4.21666 10.2225 3.74999 9.65833 3.74999ZM9.65833 8.95832H5.56917C5.00417 8.95832 4.54667 9.42499 4.54667 9.99999C4.54667 10.575 5.00417 11.0417 5.56917 11.0417H9.66C10.225 11.0417 10.6825 10.575 10.6825 9.99999C10.6825 9.42499 10.2242 8.95832 9.66 8.95832H9.65833ZM5.56917 14.1667H9.66C10.225 14.1667 10.6825 14.6333 10.6825 15.2083C10.6825 15.7833 10.2242 16.25 9.66 16.25H5.56667C5.0025 16.25 4.545 15.7833 4.545 15.2083C4.545 14.6333 5.00417 14.1667 5.56917 14.1667Z" fill="white"/>
<path d="M17.5 4.32332C17.5 4.10231 17.4122 3.89035 17.2559 3.73407C17.0996 3.57779 16.8877 3.48999 16.6667 3.48999H15.7767C15.5556 3.48999 15.3437 3.57779 15.1874 3.73407C15.0311 3.89035 14.9433 4.10231 14.9433 4.32332V14.7442C14.9432 14.9064 14.9904 15.0651 15.0792 15.2008L15.5242 15.8808C15.6 15.9965 15.7034 16.0916 15.8251 16.1573C15.9468 16.2231 16.0829 16.2575 16.2212 16.2575C16.3596 16.2575 16.4957 16.2231 16.6174 16.1573C16.7391 16.0916 16.8425 15.9965 16.9183 15.8808L17.3633 15.2008C17.4524 15.0652 17.4999 14.9064 17.5 14.7442V4.32332Z" fill="white"/>
</svg>
