<svg width="60" height="60" viewBox="0 0 60 60" fill="none" xmlns="http://www.w3.org/2000/svg">
<g clip-path="url(#clip0_255_2319)">
<path d="M30.5237 34.4019C27.8077 34.4019 25.5981 32.1923 25.5981 29.4763V27.356H25.0643L20.0254 22.4014C19.9018 22.28 19.7452 22.1978 19.5752 22.1651C19.4051 22.1324 19.2291 22.1507 19.0694 22.2176C18.9097 22.2846 18.7733 22.3972 18.6774 22.5414C18.5815 22.6856 18.5303 22.8549 18.5303 23.0281V27.3559H18.1677C16.421 27.356 15 28.777 15 30.5237V41.8323C15 43.579 16.421 45 18.1677 45H29.4763C31.223 45 32.644 43.579 32.644 41.8323V34.4019H30.5237ZM23.822 37.9395C23.3366 37.9395 22.9431 37.5459 22.9431 37.0605V31.7651C22.9431 31.2797 23.3366 30.8862 23.822 30.8862C24.3074 30.8862 24.7009 31.2797 24.7009 31.7651V37.0605C24.7009 37.5459 24.3074 37.9395 23.822 37.9395ZM24.7009 40.5908C24.7222 41.0655 24.2817 41.4697 23.822 41.4697C23.3293 41.4697 22.9644 41.067 22.9431 40.5908C22.9218 40.1162 23.3623 39.7119 23.822 39.7119C24.3148 39.7119 24.6796 40.1146 24.7009 40.5908Z" fill="#F2C470"/>
<path d="M41.8323 15H30.5237C28.777 15 27.356 16.421 27.356 18.1677V29.4763C27.356 31.223 28.777 32.644 30.5237 32.644H34.9714L39.9197 37.6767C40.0016 37.7599 40.0991 37.826 40.2068 37.8711C40.3144 37.9162 40.4299 37.9394 40.5466 37.9394C40.7797 37.9393 41.0032 37.8467 41.168 37.6819C41.3328 37.5171 41.4254 37.2936 41.4254 37.0605V32.644H41.8322C43.579 32.644 44.9999 31.223 44.9999 29.4763V18.1677C45 16.421 43.579 15 41.8323 15ZM36.178 29.1138C35.6853 29.1138 35.3204 28.7111 35.2991 28.2349C35.2778 27.7602 35.7183 27.356 36.178 27.356C36.6707 27.356 37.0356 27.7587 37.0569 28.2349C37.0781 28.7095 36.6377 29.1138 36.178 29.1138ZM37.7897 23.2704C37.324 23.6289 37.0569 24.1492 37.0569 24.698V24.7045C37.0569 25.1899 36.6633 25.5834 36.178 25.5834C35.6926 25.5834 35.299 25.1899 35.299 24.7045V24.698C35.299 23.5993 35.8161 22.5712 36.7176 21.8774C36.833 21.7884 36.9248 21.6725 36.985 21.5398C37.0451 21.407 37.0717 21.2616 37.0624 21.1161C37.0353 20.6799 36.6724 20.3169 36.2361 20.2898C35.9874 20.275 35.7513 20.3591 35.5713 20.5282C35.391 20.6977 35.2917 20.9271 35.2917 21.1742C35.2917 21.6596 34.8982 22.0531 34.4128 22.0531C33.9274 22.0531 33.5339 21.6596 33.5339 21.1742C33.5339 20.4475 33.8378 19.7451 34.3675 19.2473C34.9047 18.7424 35.6068 18.4901 36.3451 18.5353C37.6719 18.6177 38.7345 19.6804 38.8168 21.0071C38.8442 21.4397 38.7648 21.8723 38.5857 22.2669C38.4066 22.6616 38.1333 23.0062 37.7897 23.2704Z" fill="#F2C470"/>
</g>
<path opacity="0.21" fill-rule="evenodd" clip-rule="evenodd" d="M0 30V37C0 49.7025 10.2975 60 23 60H30H37C49.7025 60 60 49.7025 60 37V30V23C60 10.2975 49.7025 0 37 0H30H23C10.2975 0 0 10.2975 0 23V30Z" fill="#F2C470"/>
<defs>
<clipPath id="clip0_255_2319">
<rect width="30" height="30" fill="white" transform="translate(15 15)"/>
</clipPath>
</defs>
</svg>
