<svg width="60" height="60" viewBox="0 0 60 60" fill="none" xmlns="http://www.w3.org/2000/svg">
<path d="M40.6693 31.0148H38.3493C38.5857 31.6623 38.7149 32.361 38.7149 33.0893V41.8578C38.7149 42.1615 38.6621 42.4529 38.5659 42.724H42.4015C43.8343 42.724 44.9999 41.5583 44.9999 40.1256V35.3454C45 32.9576 43.0573 31.0148 40.6693 31.0148ZM21.2851 33.0894C21.2851 32.361 21.4143 31.6624 21.6507 31.0149H19.3307C16.9427 31.0149 15 32.9576 15 35.3456V40.1257C15 41.5584 16.1656 42.7241 17.5984 42.7241H21.4341C21.3353 42.446 21.2849 42.153 21.2851 41.8579V33.0894ZM32.652 28.7587H27.348C24.9601 28.7587 23.0173 30.7014 23.0173 33.0894V41.8579C23.0173 42.3362 23.4051 42.724 23.8835 42.724H36.1165C36.5949 42.724 36.9827 42.3363 36.9827 41.8579V33.0894C36.9827 30.7014 35.0399 28.7587 32.652 28.7587ZM30 17.2758C27.1282 17.2758 24.7918 19.6121 24.7918 22.484C24.7918 24.432 25.867 26.1332 27.4547 27.0264C28.2079 27.4501 29.0761 27.6922 30 27.6922C30.9239 27.6922 31.7921 27.4501 32.5453 27.0264C34.1331 26.1332 35.2082 24.4319 35.2082 22.484C35.2082 19.6122 32.8718 17.2758 30 17.2758ZM20.8546 22.1302C18.7068 22.1302 16.9596 23.8775 16.9596 26.0252C16.9596 28.173 18.7068 29.9203 20.8546 29.9203C21.3824 29.9207 21.9047 29.8133 22.3894 29.6045C23.2042 29.2537 23.8761 28.6328 24.2918 27.8549C24.593 27.2921 24.7502 26.6636 24.7496 26.0252C24.7496 23.8775 23.0023 22.1302 20.8546 22.1302ZM39.1454 22.1302C36.9977 22.1302 35.2504 23.8775 35.2504 26.0252C35.2498 26.6636 35.407 27.2921 35.7082 27.8549C36.1239 28.6328 36.7958 29.2538 37.6106 29.6045C38.0953 29.8133 38.6176 29.9207 39.1454 29.9203C41.2932 29.9203 43.0404 28.173 43.0404 26.0252C43.0404 23.8775 41.2932 22.1302 39.1454 22.1302Z" fill="#F2C470"/>
<path opacity="0.21" fill-rule="evenodd" clip-rule="evenodd" d="M0 30V37C0 49.7025 10.2975 60 23 60H30H37C49.7025 60 60 49.7025 60 37V30V23C60 10.2975 49.7025 0 37 0H30H23C10.2975 0 0 10.2975 0 23V30Z" fill="#F2C470"/>
</svg>
