<svg width="60" height="60" viewBox="0 0 60 60" fill="none" xmlns="http://www.w3.org/2000/svg">
<path d="M44.7803 16.7782L43.2802 15.2783C42.9877 14.9856 42.513 14.9854 42.2203 15.2779C42.2201 15.2781 42.2198 15.2781 42.2198 15.2783L33.2197 24.2782C33.0791 24.4189 33.0001 24.6096 33 24.8085V26.3086C33 26.7226 33.3357 27.0584 33.7501 27.0584H35.2502C35.449 27.0584 35.6397 26.9794 35.7802 26.8389L44.7803 17.8388C45.0731 17.5461 45.0733 17.0716 44.7808 16.7786L44.7805 16.7785L44.7803 16.7782Z" fill="#F2C470"/>
<path d="M35.2501 28.5585H33.75C32.5078 28.5571 31.5012 27.5505 31.4999 26.3086V24.8085C31.4992 24.5129 31.5571 24.2202 31.6703 23.9471C31.7834 23.6741 31.9495 23.4262 32.1591 23.2178L37.3182 18.0586H18.75C16.6798 18.0608 15.0023 19.7383 15 21.8086V35.3085C15.0023 37.3787 16.6798 39.0564 18.75 39.0585H25.5V42.8085C25.5 43.2227 25.8357 43.5585 26.25 43.5585C26.4123 43.5585 26.5702 43.5059 26.7 43.4084L32.5008 39.0585H39.7499C41.8201 39.0561 43.4978 37.3785 43.4999 35.3085V21.2402L36.8408 27.8993C36.6324 28.1088 36.3845 28.275 36.1115 28.3881C35.8384 28.5013 35.5457 28.5592 35.2501 28.5585ZM20.2501 22.5586H27.7501C28.1641 22.5586 28.4999 22.8943 28.4999 23.3086C28.4999 23.7227 28.1641 24.0585 27.7501 24.0585H20.2501C19.8359 24.0585 19.5001 23.7229 19.5001 23.3087C19.5001 22.8944 19.8357 22.5586 20.25 22.5586H20.2501ZM20.2501 27.0584H27.7501C28.1641 27.0584 28.4999 27.3942 28.4999 27.8084C28.4999 28.2227 28.1641 28.5585 27.7501 28.5585H20.2501C19.8359 28.5585 19.5001 28.2227 19.5001 27.8085C19.5001 27.3944 19.8359 27.0584 20.2501 27.0584ZM38.9999 32.3085C38.9999 32.7227 38.6641 33.0585 38.2501 33.0585H20.25C19.8357 33.0585 19.5 32.7228 19.5 32.3085C19.5 31.8945 19.8357 31.5585 20.25 31.5585H38.25C38.664 31.5585 38.9998 31.8942 38.9998 32.3085H38.9999Z" fill="#F2C470"/>
<path opacity="0.21" fill-rule="evenodd" clip-rule="evenodd" d="M0 30V37C0 49.7025 10.2975 60 23 60H30H37C49.7025 60 60 49.7025 60 37V30V23C60 10.2975 49.7025 0 37 0H30H23C10.2975 0 0 10.2975 0 23V30Z" fill="#F2C470"/>
</svg>
